<?xml version="1.0" encoding="UTF-8" ?>
<!DOCTYPE svg PUBLIC "-//W3C//DTD SVG 1.1//EN" "http://www.w3.org/Graphics/SVG/1.1/DTD/svg11.dtd">
<svg width="256pt" height="256pt" viewBox="0 0 256 256" version="1.1" xmlns="http://www.w3.org/2000/svg">
<g id="#61466dff">
<path fill="#61466d" opacity="1.00" d=" M 107.23 9.74 C 122.78 7.14 138.83 7.46 154.24 10.82 C 154.27 16.80 153.61 22.76 153.79 28.75 C 153.34 29.25 152.43 30.26 151.98 30.77 C 136.62 27.57 120.63 27.46 105.20 30.26 C 107.34 23.65 107.50 16.62 107.23 9.74 Z" />
</g>
<g id="#6b376fff">
<path fill="#6b376f" opacity="1.00" d=" M 35.50 51.53 C 53.44 29.67 79.36 14.57 107.23 9.74 C 107.50 16.62 107.34 23.65 105.20 30.26 C 98.74 32.15 92.33 34.33 86.28 37.31 C 79.15 40.83 71.87 44.32 65.81 49.59 C 63.97 51.12 62.13 52.67 60.36 54.29 C 56.42 52.68 52.51 50.07 48.05 50.76 C 43.88 51.22 39.70 51.76 35.50 51.53 Z" />
</g>
<g id="#584572ff">
<path fill="#584572" opacity="1.00" d=" M 154.24 10.82 C 160.49 12.26 166.62 14.16 172.60 16.50 C 172.94 22.16 172.92 27.93 174.63 33.41 C 174.92 35.44 176.59 38.16 174.28 39.60 C 171.30 38.06 168.30 36.54 165.20 35.26 C 160.85 33.59 156.48 31.95 151.98 30.77 C 152.43 30.26 153.34 29.25 153.79 28.75 C 153.61 22.76 154.27 16.80 154.24 10.82 Z" />
</g>
<g id="#533d7aff">
<path fill="#533d7a" opacity="1.00" d=" M 172.60 16.50 C 198.25 26.76 220.10 46.12 233.33 70.39 C 225.31 72.00 217.26 70.41 209.24 69.79 C 199.92 57.41 188.31 46.44 174.28 39.60 C 176.59 38.16 174.92 35.44 174.63 33.41 C 172.92 27.93 172.94 22.16 172.60 16.50 Z" />
</g>
<g id="#793e8eff">
<path fill="#793e8e" opacity="1.00" d=" M 105.20 30.26 C 120.63 27.46 136.62 27.57 151.98 30.77 C 156.48 31.95 160.85 33.59 165.20 35.26 C 165.63 37.75 165.05 40.19 163.83 42.38 C 162.46 42.11 161.09 41.83 159.71 41.56 C 159.60 44.26 158.98 47.17 160.30 49.69 C 162.23 53.75 163.96 57.92 166.48 61.67 L 165.97 61.86 C 165.36 62.06 164.13 62.46 163.52 62.66 C 163.22 63.21 162.62 64.32 162.32 64.87 C 159.10 61.04 155.84 57.21 152.23 53.75 C 145.04 48.67 136.15 46.89 127.60 45.61 C 119.25 45.56 110.83 47.03 103.05 50.11 C 99.91 51.30 97.20 53.75 93.76 54.08 C 88.41 53.22 82.90 53.36 77.71 54.99 C 77.91 53.98 78.10 52.97 78.30 51.95 C 74.44 50.01 70.10 49.43 65.81 49.59 C 71.87 44.32 79.15 40.83 86.28 37.31 C 92.33 34.33 98.74 32.15 105.20 30.26 Z" />
</g>
<g id="#6e4096ff">
<path fill="#6e4096" opacity="1.00" d=" M 165.20 35.26 C 168.30 36.54 171.30 38.06 174.28 39.60 C 188.31 46.44 199.92 57.41 209.24 69.79 C 216.10 79.98 221.53 91.14 225.07 102.91 C 228.37 115.08 228.47 127.87 227.38 140.35 C 226.57 149.27 223.94 157.92 220.33 166.10 C 219.62 165.01 218.91 163.92 218.21 162.84 C 216.68 162.63 215.16 162.41 213.64 162.20 C 213.49 159.09 213.25 155.94 212.04 153.03 C 209.56 153.01 207.24 152.09 204.99 151.16 C 204.43 148.90 203.95 146.62 203.39 144.37 C 208.25 143.50 210.89 139.11 213.38 135.32 C 217.43 128.75 217.68 120.48 215.86 113.16 C 213.39 107.72 210.31 102.06 205.09 98.80 C 201.87 96.57 198.63 94.15 194.65 93.51 C 191.90 92.72 190.07 90.44 188.37 88.30 C 188.32 86.58 188.42 84.80 187.85 83.16 C 183.68 79.32 178.33 76.59 175.38 71.56 C 172.98 67.68 169.57 64.60 165.97 61.86 L 166.48 61.67 C 163.96 57.92 162.23 53.75 160.30 49.69 C 158.98 47.17 159.60 44.26 159.71 41.56 C 161.09 41.83 162.46 42.11 163.83 42.38 C 165.05 40.19 165.63 37.75 165.20 35.26 Z" />
</g>
<g id="#8c3895ff">
<path fill="#8c3895" opacity="1.00" d=" M 103.05 50.11 C 110.83 47.03 119.25 45.56 127.60 45.61 C 136.15 46.89 145.04 48.67 152.23 53.75 C 155.84 57.21 159.10 61.04 162.32 64.87 C 162.76 66.60 163.53 68.51 162.89 70.27 C 161.69 71.70 159.49 72.48 159.44 74.63 C 159.39 81.38 164.37 88.13 161.56 94.85 C 159.27 98.44 157.53 102.48 154.39 105.46 C 152.74 106.93 151.84 108.96 151.07 110.99 C 146.45 101.28 142.70 91.09 140.78 80.49 C 140.07 76.67 140.66 72.58 139.05 68.96 C 137.20 65.04 133.31 62.07 129.01 61.44 C 123.90 61.66 119.52 65.30 117.32 69.77 C 111.04 71.53 107.95 77.39 104.61 82.43 C 103.80 79.20 102.20 76.27 100.86 73.26 C 99.70 70.71 99.56 67.88 98.78 65.23 C 97.66 64.31 96.18 63.99 94.87 63.43 C 94.48 60.31 94.12 57.20 93.76 54.08 C 97.20 53.75 99.91 51.30 103.05 50.11 Z" />
</g>
<g id="#763797ff">
<path fill="#763797" opacity="1.00" d=" M 65.81 49.59 C 70.10 49.43 74.44 50.01 78.30 51.95 C 78.10 52.97 77.91 53.98 77.71 54.99 C 73.54 57.53 69.72 60.61 65.44 62.97 C 60.42 62.36 55.45 63.54 50.62 64.78 C 53.62 61.06 56.86 57.55 60.36 54.29 C 62.13 52.67 63.97 51.12 65.81 49.59 Z" />
</g>
<g id="#653081ff">
<path fill="#653081" opacity="1.00" d=" M 48.05 50.76 C 52.51 50.07 56.42 52.68 60.36 54.29 C 56.86 57.55 53.62 61.06 50.62 64.78 C 40.40 77.04 33.19 91.95 29.96 107.59 C 29.40 111.06 28.87 114.54 28.58 118.04 C 27.23 112.61 20.72 112.87 16.90 110.12 C 14.86 107.59 14.94 104.04 14.16 101.00 C 13.22 100.68 12.27 100.36 11.33 100.04 C 15.40 82.26 23.90 65.57 35.50 51.53 C 39.70 51.76 43.88 51.22 48.05 50.76 Z" />
</g>
<g id="#7e3aa0ff">
<path fill="#7e3aa0" opacity="1.00" d=" M 77.71 54.99 C 82.90 53.36 88.41 53.22 93.76 54.08 C 94.12 57.20 94.48 60.31 94.87 63.43 C 91.75 64.64 88.22 65.29 85.66 67.58 C 85.43 69.52 85.72 71.47 86.05 73.39 C 82.07 75.39 77.66 76.57 73.22 76.87 C 70.82 76.69 68.04 76.77 66.29 74.81 C 65.16 73.62 63.95 72.50 62.65 71.50 C 62.57 68.42 63.26 65.29 65.44 62.97 C 69.72 60.61 73.54 57.53 77.71 54.99 Z" />
</g>
<g id="#7233a4ff">
<path fill="#7233a4" opacity="1.00" d=" M 50.62 64.78 C 55.45 63.54 60.42 62.36 65.44 62.97 C 63.26 65.29 62.57 68.42 62.65 71.50 C 63.95 72.50 65.16 73.62 66.29 74.81 C 61.63 77.84 56.43 80.39 53.06 84.99 C 48.86 89.76 46.66 95.93 45.82 102.16 C 45.47 105.78 45.74 109.43 45.50 113.07 C 44.45 113.91 43.41 114.77 42.37 115.64 C 39.73 114.40 38.89 111.64 38.23 109.03 C 36.63 110.98 35.03 112.94 33.44 114.91 C 32.25 112.48 31.09 110.04 29.96 107.59 C 33.19 91.95 40.40 77.04 50.62 64.78 Z" />
</g>
<g id="#ffffffff">
<path fill="#ffffff" opacity="1.00" d=" M 117.32 69.77 C 119.52 65.30 123.90 61.66 129.01 61.44 C 133.31 62.07 137.20 65.04 139.05 68.96 C 140.66 72.58 140.07 76.67 140.78 80.49 C 142.70 91.09 146.45 101.28 151.07 110.99 C 154.49 118.03 158.35 124.85 162.56 131.44 C 164.98 135.23 167.70 138.82 170.45 142.37 C 169.72 143.11 169.00 143.84 168.28 144.58 C 161.29 141.69 154.22 138.99 147.11 136.43 C 143.57 135.08 139.55 134.85 136.35 132.72 C 133.23 129.81 131.78 125.62 130.03 121.83 C 128.10 116.89 127.18 111.64 125.58 106.59 C 122.43 96.52 119.58 86.35 117.18 76.08 C 116.58 74.00 116.80 71.84 117.32 69.77 Z" />
<path fill="#ffffff" opacity="1.00" d=" M 112.72 93.67 C 113.00 91.82 115.89 91.86 116.17 93.65 C 119.08 103.11 121.59 112.73 125.41 121.89 C 125.44 125.99 123.18 129.65 120.87 132.88 C 118.61 136.08 114.38 136.06 110.93 136.93 C 102.84 138.64 95.03 141.45 87.54 144.95 C 87.30 144.46 86.81 143.48 86.56 142.99 C 87.82 139.76 90.48 137.29 92.29 134.36 C 99.14 123.88 105.26 112.85 109.87 101.19 C 110.85 98.69 111.58 96.10 112.72 93.67 Z" />
<path fill="#ffffff" opacity="1.00" d=" M 111.59 140.81 C 119.60 139.00 127.78 137.41 136.04 137.94 C 139.68 138.40 143.18 139.53 146.73 140.42 C 158.53 143.53 169.78 148.54 180.23 154.82 C 186.15 157.75 192.54 163.94 189.80 171.17 C 187.75 175.26 183.73 178.59 178.98 178.59 C 175.38 178.34 172.32 176.18 169.24 174.51 C 162.18 170.27 154.89 166.29 146.98 163.86 C 139.85 161.71 132.43 159.63 124.91 160.48 C 117.51 161.29 110.36 163.61 103.49 166.39 C 96.22 169.33 89.86 174.02 82.87 177.51 C 78.77 180.25 73.89 178.98 70.10 176.37 C 67.00 173.20 64.04 168.64 66.37 164.15 C 70.93 155.44 80.78 151.66 89.34 148.02 C 96.58 145.13 103.96 142.50 111.59 140.81 Z" />
</g>
<g id="#82439cff">
<path fill="#82439c" opacity="1.00" d=" M 163.52 62.66 C 164.13 62.46 165.36 62.06 165.97 61.86 C 169.57 64.60 172.98 67.68 175.38 71.56 C 178.33 76.59 183.68 79.32 187.85 83.16 C 188.42 84.80 188.32 86.58 188.37 88.30 C 183.29 86.78 178.45 89.90 174.46 92.71 C 173.51 93.77 172.64 94.90 171.75 96.00 C 171.01 95.94 170.27 95.87 169.54 95.81 C 168.66 96.60 167.79 97.40 166.92 98.19 C 165.15 97.06 163.35 95.95 161.56 94.85 C 164.37 88.13 159.39 81.38 159.44 74.63 C 159.49 72.48 161.69 71.70 162.89 70.27 C 163.53 68.51 162.76 66.60 162.32 64.87 C 162.62 64.32 163.22 63.21 163.52 62.66 Z" />
</g>
<g id="#8f3da0ff">
<path fill="#8f3da0" opacity="1.00" d=" M 85.66 67.58 C 88.22 65.29 91.75 64.64 94.87 63.43 C 96.18 63.99 97.66 64.31 98.78 65.23 C 99.56 67.88 99.70 70.71 100.86 73.26 C 102.20 76.27 103.80 79.20 104.61 82.43 C 105.78 88.84 106.52 95.44 109.87 101.19 C 105.26 112.85 99.14 123.88 92.29 134.36 C 90.48 137.29 87.82 139.76 86.56 142.99 C 86.81 143.48 87.30 144.46 87.54 144.95 C 95.03 141.45 102.84 138.64 110.93 136.93 C 111.09 137.90 111.42 139.84 111.59 140.81 C 103.96 142.50 96.58 145.13 89.34 148.02 C 89.33 147.70 89.32 147.06 89.32 146.73 C 84.95 144.09 80.77 140.91 75.47 140.49 C 74.63 138.67 73.80 136.84 72.96 135.02 C 75.79 128.39 77.75 121.13 82.63 115.64 C 87.72 109.77 91.32 102.66 93.33 95.18 C 94.47 91.40 92.67 87.66 91.66 84.08 C 90.47 80.18 87.80 77.01 86.05 73.39 C 85.72 71.47 85.43 69.52 85.66 67.58 Z" />
</g>
<g id="#5f4373ff">
<path fill="#5f4373" opacity="1.00" d=" M 209.24 69.79 C 217.26 70.41 225.31 72.00 233.33 70.39 C 254.51 108.38 252.65 158.08 228.08 194.07 C 225.06 188.75 222.83 183.05 220.39 177.46 C 219.64 175.77 218.27 174.48 217.07 173.12 C 218.23 170.81 219.29 168.45 220.33 166.10 C 223.94 157.92 226.57 149.27 227.38 140.35 C 228.47 127.87 228.37 115.08 225.07 102.91 C 221.53 91.14 216.10 79.98 209.24 69.79 Z" />
</g>
<g id="#953097ff">
<path fill="#953097" opacity="1.00" d=" M 104.61 82.43 C 107.95 77.39 111.04 71.53 117.32 69.77 C 116.80 71.84 116.58 74.00 117.18 76.08 C 119.58 86.35 122.43 96.52 125.58 106.59 C 127.18 111.64 128.10 116.89 130.03 121.83 C 128.49 121.85 126.95 121.86 125.41 121.89 C 121.59 112.73 119.08 103.11 116.17 93.65 C 115.89 91.86 113.00 91.82 112.72 93.67 C 111.58 96.10 110.85 98.69 109.87 101.19 C 106.52 95.44 105.78 88.84 104.61 82.43 Z" />
</g>
<g id="#863bacff">
<path fill="#863bac" opacity="1.00" d=" M 73.22 76.87 C 77.66 76.57 82.07 75.39 86.05 73.39 C 87.80 77.01 90.47 80.18 91.66 84.08 C 92.67 87.66 94.47 91.40 93.33 95.18 C 91.32 102.66 87.72 109.77 82.63 115.64 C 77.75 121.13 75.79 128.39 72.96 135.02 C 72.50 135.14 71.56 135.40 71.10 135.52 C 68.01 132.24 63.31 131.94 59.65 129.62 C 57.43 126.71 56.08 123.30 54.66 119.97 C 63.02 114.72 70.50 107.34 73.77 97.83 C 74.94 93.63 74.51 89.20 75.27 84.92 C 75.86 82.04 74.34 79.40 73.22 76.87 Z" />
</g>
<g id="#7b34b1ff">
<path fill="#7b34b1" opacity="1.00" d=" M 53.06 84.99 C 56.43 80.39 61.63 77.84 66.29 74.81 C 68.04 76.77 70.82 76.69 73.22 76.87 C 74.34 79.40 75.86 82.04 75.27 84.92 C 74.51 89.20 74.94 93.63 73.77 97.83 C 70.50 107.34 63.02 114.72 54.66 119.97 C 52.59 116.38 48.06 116.10 45.50 113.07 C 45.74 109.43 45.47 105.78 45.82 102.16 C 46.66 95.93 48.86 89.76 53.06 84.99 Z" />
</g>
<g id="#7f3fa7ff">
<path fill="#7f3fa7" opacity="1.00" d=" M 174.46 92.71 C 178.45 89.90 183.29 86.78 188.37 88.30 C 190.07 90.44 191.90 92.72 194.65 93.51 C 193.63 96.10 192.28 98.57 190.21 100.47 C 185.70 101.09 180.56 101.52 177.46 105.32 C 178.24 100.84 176.95 96.44 174.46 92.71 Z" />
</g>
<g id="#8c41a5ff">
<path fill="#8c41a5" opacity="1.00" d=" M 171.75 96.00 C 172.64 94.90 173.51 93.77 174.46 92.71 C 176.95 96.44 178.24 100.84 177.46 105.32 C 176.42 107.26 175.19 109.13 174.46 111.22 C 173.56 117.77 173.75 124.61 176.45 130.76 C 173.17 127.67 168.51 127.21 164.92 124.68 C 164.15 126.94 163.36 129.19 162.56 131.44 C 158.35 124.85 154.49 118.03 151.07 110.99 C 151.84 108.96 152.74 106.93 154.39 105.46 C 157.53 102.48 159.27 98.44 161.56 94.85 C 163.35 95.95 165.15 97.06 166.92 98.19 C 167.79 97.40 168.66 96.60 169.54 95.81 C 170.27 95.87 171.01 95.94 171.75 96.00 Z" />
</g>
<g id="#7934aeff">
<path fill="#7934ae" opacity="1.00" d=" M 194.65 93.51 C 198.63 94.15 201.87 96.57 205.09 98.80 C 210.31 102.06 213.39 107.72 215.86 113.16 C 217.68 120.48 217.43 128.75 213.38 135.32 C 210.89 139.11 208.25 143.50 203.39 144.37 C 202.66 141.67 200.40 140.06 197.94 139.07 C 197.06 136.94 196.60 134.62 195.38 132.65 C 192.70 129.70 189.17 127.41 187.45 123.68 C 185.61 119.91 183.43 115.45 185.16 111.25 C 185.95 109.09 187.88 107.69 189.17 105.85 C 189.75 104.11 189.88 102.26 190.21 100.47 C 192.28 98.57 193.63 96.10 194.65 93.51 Z" />
</g>
<g id="#61387eff">
<path fill="#61387e" opacity="1.00" d=" M 11.21 99.99 L 11.33 100.04 C 12.27 100.36 13.22 100.68 14.16 101.00 C 14.94 104.04 14.86 107.59 16.90 110.12 C 20.72 112.87 27.23 112.61 28.58 118.04 C 28.09 126.36 28.06 134.75 29.20 143.02 C 25.81 142.96 22.41 142.73 19.03 143.12 C 16.38 143.49 14.28 145.32 12.08 146.69 C 11.40 146.58 10.04 146.36 9.37 146.25 C 7.12 130.89 7.72 115.12 11.21 99.99 Z" />
</g>
<g id="#8437adff">
<path fill="#8437ad" opacity="1.00" d=" M 177.46 105.32 C 180.56 101.52 185.70 101.09 190.21 100.47 C 189.88 102.26 189.75 104.11 189.17 105.85 C 187.88 107.69 185.95 109.09 185.16 111.25 C 183.43 115.45 185.61 119.91 187.45 123.68 C 189.17 127.41 192.70 129.70 195.38 132.65 C 196.60 134.62 197.06 136.94 197.94 139.07 C 193.06 140.22 188.26 138.50 183.49 137.65 C 181.18 135.31 178.74 133.11 176.45 130.76 C 173.75 124.61 173.56 117.77 174.46 111.22 C 175.19 109.13 176.42 107.26 177.46 105.32 Z" />
</g>
<g id="#743ba2ff">
<path fill="#743ba2" opacity="1.00" d=" M 29.96 107.59 C 31.09 110.04 32.25 112.48 33.44 114.91 C 35.03 112.94 36.63 110.98 38.23 109.03 C 38.89 111.64 39.73 114.40 42.37 115.64 C 43.41 114.77 44.45 113.91 45.50 113.07 C 48.06 116.10 52.59 116.38 54.66 119.97 C 56.08 123.30 57.43 126.71 59.65 129.62 C 57.80 133.60 54.80 137.09 54.01 141.51 C 53.62 143.50 53.56 145.53 53.47 147.55 C 51.55 149.64 49.46 151.60 47.83 153.95 C 46.25 156.13 46.35 158.96 46.41 161.53 C 40.33 157.55 35.25 152.34 29.85 147.54 C 29.62 146.04 29.40 144.52 29.20 143.02 C 28.06 134.75 28.09 126.36 28.58 118.04 C 28.87 114.54 29.40 111.06 29.96 107.59 Z" />
</g>
<g id="#922dafff">
<path fill="#922daf" opacity="1.00" d=" M 125.41 121.89 C 126.95 121.86 128.49 121.85 130.03 121.83 C 131.78 125.62 133.23 129.81 136.35 132.72 C 139.55 134.85 143.57 135.08 147.11 136.43 C 147.01 137.43 146.82 139.42 146.73 140.42 C 143.18 139.53 139.68 138.40 136.04 137.94 C 127.78 137.41 119.60 139.00 111.59 140.81 C 111.42 139.84 111.09 137.90 110.93 136.93 C 114.38 136.06 118.61 136.08 120.87 132.88 C 123.18 129.65 125.44 125.99 125.41 121.89 Z" />
</g>
<g id="#8d37a1ff">
<path fill="#8d37a1" opacity="1.00" d=" M 164.92 124.68 C 168.51 127.21 173.17 127.67 176.45 130.76 C 178.74 133.11 181.18 135.31 183.49 137.65 C 185.50 141.73 187.00 146.05 188.00 150.48 C 185.14 151.35 181.73 151.86 180.23 154.82 C 169.78 148.54 158.53 143.53 146.73 140.42 C 146.82 139.42 147.01 137.43 147.11 136.43 C 154.22 138.99 161.29 141.69 168.28 144.58 C 169.00 143.84 169.72 143.11 170.45 142.37 C 167.70 138.82 164.98 135.23 162.56 131.44 C 163.36 129.19 164.15 126.94 164.92 124.68 Z" />
</g>
<g id="#86369fff">
<path fill="#86369f" opacity="1.00" d=" M 54.01 141.51 C 54.80 137.09 57.80 133.60 59.65 129.62 C 63.31 131.94 68.01 132.24 71.10 135.52 C 71.56 135.40 72.50 135.14 72.96 135.02 C 73.80 136.84 74.63 138.67 75.47 140.49 C 80.77 140.91 84.95 144.09 89.32 146.73 C 89.32 147.06 89.33 147.70 89.34 148.02 C 80.78 151.66 70.93 155.44 66.37 164.15 C 65.39 163.28 64.41 162.40 63.44 161.52 C 62.96 155.40 57.53 151.49 53.47 147.55 C 53.56 145.53 53.62 143.50 54.01 141.51 Z" />
</g>
<g id="#8138a2ff">
<path fill="#8138a2" opacity="1.00" d=" M 183.49 137.65 C 188.26 138.50 193.06 140.22 197.94 139.07 C 200.40 140.06 202.66 141.67 203.39 144.37 C 203.95 146.62 204.43 148.90 204.99 151.16 C 203.25 152.80 201.39 154.32 199.24 155.39 C 195.61 153.48 191.62 152.41 188.00 150.48 C 187.00 146.05 185.50 141.73 183.49 137.65 Z" />
</g>
<g id="#5a367fff">
<path fill="#5a367f" opacity="1.00" d=" M 12.08 146.69 C 14.28 145.32 16.38 143.49 19.03 143.12 C 22.41 142.73 25.81 142.96 29.20 143.02 C 29.40 144.52 29.62 146.04 29.85 147.54 C 30.51 153.63 32.95 159.30 35.08 164.98 C 32.10 166.06 29.11 167.71 25.83 167.44 C 21.53 167.12 17.47 165.53 13.46 164.05 C 11.71 158.21 10.28 152.28 9.37 146.25 C 10.04 146.36 11.40 146.58 12.08 146.69 Z" />
</g>
<g id="#6a349aff">
<path fill="#6a349a" opacity="1.00" d=" M 29.85 147.54 C 35.25 152.34 40.33 157.55 46.41 161.53 C 47.01 164.51 47.96 167.43 49.26 170.20 C 49.07 170.83 48.70 172.09 48.51 172.72 C 45.10 172.73 41.72 172.31 38.37 171.75 C 37.20 169.53 36.04 167.30 35.08 164.98 C 32.95 159.30 30.51 153.63 29.85 147.54 Z" />
</g>
<g id="#7a329bff">
<path fill="#7a329b" opacity="1.00" d=" M 47.83 153.95 C 49.46 151.60 51.55 149.64 53.47 147.55 C 57.53 151.49 62.96 155.40 63.44 161.52 C 60.93 165.57 59.09 169.98 57.05 174.27 C 55.46 174.47 53.87 174.66 52.28 174.85 C 51.26 173.31 50.20 171.79 49.26 170.20 C 47.96 167.43 47.01 164.51 46.41 161.53 C 46.35 158.96 46.25 156.13 47.83 153.95 Z" />
</g>
<g id="#853796ff">
<path fill="#853796" opacity="1.00" d=" M 180.23 154.82 C 181.73 151.86 185.14 151.35 188.00 150.48 C 191.62 152.41 195.61 153.48 199.24 155.39 C 199.58 159.66 200.02 163.97 201.45 168.04 C 200.41 169.76 199.02 171.21 197.34 172.32 C 194.84 171.83 192.32 171.49 189.80 171.17 C 192.54 163.94 186.15 157.75 180.23 154.82 Z" />
</g>
<g id="#793d92ff">
<path fill="#793d92" opacity="1.00" d=" M 204.99 151.16 C 207.24 152.09 209.56 153.01 212.04 153.03 C 213.25 155.94 213.49 159.09 213.64 162.20 C 215.16 162.41 216.68 162.63 218.21 162.84 C 218.91 163.92 219.62 165.01 220.33 166.10 C 219.29 168.45 218.23 170.81 217.07 173.12 C 215.54 176.03 213.82 178.85 212.15 181.68 C 209.59 176.53 207.98 169.38 201.45 168.04 C 200.02 163.97 199.58 159.66 199.24 155.39 C 201.39 154.32 203.25 152.80 204.99 151.16 Z" />
</g>
<g id="#942c97ff">
<path fill="#942c97" opacity="1.00" d=" M 103.49 166.39 C 110.36 163.61 117.51 161.29 124.91 160.48 C 132.43 159.63 139.85 161.71 146.98 163.86 C 154.89 166.29 162.18 170.27 169.24 174.51 C 166.56 178.03 164.62 182.18 161.12 185.01 C 158.99 187.12 155.91 187.73 153.65 189.65 C 151.62 191.33 149.41 192.75 147.06 193.95 C 146.38 198.22 141.41 200.45 142.09 205.09 C 135.53 203.17 128.70 205.84 122.02 204.96 C 119.44 204.44 116.91 205.46 114.35 205.30 C 110.72 204.24 107.34 202.44 103.68 201.44 C 104.03 200.32 104.40 199.22 104.77 198.11 C 103.59 197.05 102.43 195.97 101.24 194.92 C 102.01 194.33 102.78 193.75 103.56 193.17 C 100.16 190.14 94.73 189.40 92.78 184.93 C 88.64 183.73 85.52 180.77 82.87 177.51 C 89.86 174.02 96.22 169.33 103.49 166.39 Z" />
</g>
<g id="#7c2b92ff">
<path fill="#7c2b92" opacity="1.00" d=" M 63.44 161.52 C 64.41 162.40 65.39 163.28 66.37 164.15 C 64.04 168.64 67.00 173.20 70.10 176.37 C 72.08 182.31 75.17 187.97 79.49 192.51 C 84.76 196.98 90.93 200.27 97.09 203.32 C 100.78 206.63 103.36 210.93 106.58 214.65 C 104.66 214.67 102.73 214.72 100.81 214.85 C 104.48 219.75 109.75 223.01 114.21 227.11 C 105.92 226.48 97.96 223.90 90.34 220.70 C 67.84 211.39 48.78 193.84 38.37 171.75 C 41.72 172.31 45.10 172.73 48.51 172.72 C 48.70 172.09 49.07 170.83 49.26 170.20 C 50.20 171.79 51.26 173.31 52.28 174.85 C 53.87 174.66 55.46 174.47 57.05 174.27 C 59.09 169.98 60.93 165.57 63.44 161.52 Z" />
</g>
<g id="#602e77ff">
<path fill="#602e77" opacity="1.00" d=" M 13.46 164.05 C 17.47 165.53 21.53 167.12 25.83 167.44 C 29.11 167.71 32.10 166.06 35.08 164.98 C 36.04 167.30 37.20 169.53 38.37 171.75 C 48.78 193.84 67.84 211.39 90.34 220.70 C 86.86 222.80 84.67 227.01 80.49 227.82 C 80.61 228.19 80.85 228.93 80.97 229.30 C 77.49 227.53 74.32 225.21 71.83 222.18 C 69.10 218.86 64.68 217.34 62.42 213.61 C 60.39 210.84 58.77 206.73 54.81 206.51 C 49.93 206.16 47.57 211.38 44.46 214.23 C 30.22 200.38 19.43 183.01 13.46 164.05 Z" />
</g>
<g id="#7e3788ff">
<path fill="#7e3788" opacity="1.00" d=" M 201.45 168.04 C 207.98 169.38 209.59 176.53 212.15 181.68 C 210.62 184.30 208.91 186.82 206.99 189.18 C 204.89 188.88 202.60 189.10 200.65 188.14 C 198.59 186.40 196.52 184.65 194.09 183.42 C 195.36 179.78 196.12 175.98 197.34 172.32 C 199.02 171.21 200.41 169.76 201.45 168.04 Z" />
</g>
<g id="#8b2e8cff">
<path fill="#8b2e8c" opacity="1.00" d=" M 189.80 171.17 C 192.32 171.49 194.84 171.83 197.34 172.32 C 196.12 175.98 195.36 179.78 194.09 183.42 C 192.23 184.39 190.50 185.59 188.98 187.05 C 181.09 193.79 172.55 199.80 165.21 207.17 C 162.08 209.86 158.85 212.44 156.09 215.52 C 152.37 215.52 148.64 215.61 144.93 215.82 C 144.71 214.19 144.78 212.55 145.07 210.93 C 144.00 209.02 142.90 207.12 142.09 205.09 C 141.41 200.45 146.38 198.22 147.06 193.95 C 149.41 192.75 151.62 191.33 153.65 189.65 C 155.91 187.73 158.99 187.12 161.12 185.01 C 164.62 182.18 166.56 178.03 169.24 174.51 C 172.32 176.18 175.38 178.34 178.98 178.59 C 183.73 178.59 187.75 175.26 189.80 171.17 Z" />
</g>
<g id="#6c336bff">
<path fill="#6c336b" opacity="1.00" d=" M 212.15 181.68 C 213.82 178.85 215.54 176.03 217.07 173.12 C 218.27 174.48 219.64 175.77 220.39 177.46 C 222.83 183.05 225.06 188.75 228.08 194.07 L 228.15 194.20 C 209.81 222.05 179.49 241.70 146.46 246.59 C 143.78 238.96 137.64 233.22 131.89 227.81 C 140.75 227.58 149.64 226.33 158.02 223.37 C 161.18 222.34 164.36 221.36 167.42 220.05 C 172.43 224.63 179.02 227.93 185.97 227.23 C 194.06 227.35 201.09 221.36 204.13 214.19 C 205.89 207.97 205.23 200.98 201.98 195.34 C 203.70 193.33 205.32 191.23 206.99 189.18 C 208.91 186.82 210.62 184.30 212.15 181.68 Z" />
</g>
<g id="#8c2991ff">
<path fill="#8c2991" opacity="1.00" d=" M 70.10 176.37 C 73.89 178.98 78.77 180.25 82.87 177.51 C 85.52 180.77 88.64 183.73 92.78 184.93 C 94.73 189.40 100.16 190.14 103.56 193.17 C 102.78 193.75 102.01 194.33 101.24 194.92 C 102.43 195.97 103.59 197.05 104.77 198.11 C 104.40 199.22 104.03 200.32 103.68 201.44 C 101.66 202.57 99.43 203.35 97.09 203.32 C 90.93 200.27 84.76 196.98 79.49 192.51 C 75.17 187.97 72.08 182.31 70.10 176.37 Z" />
</g>
<g id="#832f80ff">
<path fill="#832f80" opacity="1.00" d=" M 188.98 187.05 C 190.50 185.59 192.23 184.39 194.09 183.42 C 196.52 184.65 198.59 186.40 200.65 188.14 C 202.60 189.10 204.89 188.88 206.99 189.18 C 205.32 191.23 203.70 193.33 201.98 195.34 C 192.21 205.75 180.38 214.08 167.42 220.05 C 164.36 221.36 161.18 222.34 158.02 223.37 C 157.38 220.75 156.74 218.13 156.09 215.52 C 158.85 212.44 162.08 209.86 165.21 207.17 C 172.55 199.80 181.09 193.79 188.98 187.05 Z" />
</g>
<g id="#732e62ff">
<path fill="#732e62" opacity="1.00" d=" M 167.42 220.05 C 180.38 214.08 192.21 205.75 201.98 195.34 C 205.23 200.98 205.89 207.97 204.13 214.19 C 201.09 221.36 194.06 227.35 185.97 227.23 C 179.02 227.93 172.43 224.63 167.42 220.05 Z" />
</g>
<g id="#823098ff">
<path fill="#823098" opacity="1.00" d=" M 103.68 201.44 C 107.34 202.44 110.72 204.24 114.35 205.30 C 116.91 205.46 119.44 204.44 122.02 204.96 C 128.70 205.84 135.53 203.17 142.09 205.09 C 142.90 207.12 144.00 209.02 145.07 210.93 C 144.78 212.55 144.71 214.19 144.93 215.82 C 148.64 215.61 152.37 215.52 156.09 215.52 C 156.74 218.13 157.38 220.75 158.02 223.37 C 149.64 226.33 140.75 227.58 131.89 227.81 C 125.99 227.85 120.08 227.74 114.21 227.11 C 109.75 223.01 104.48 219.75 100.81 214.85 C 102.73 214.72 104.66 214.67 106.58 214.65 C 103.36 210.93 100.78 206.63 97.09 203.32 C 99.43 203.35 101.66 202.57 103.68 201.44 Z" />
</g>
<g id="#5a317eff">
<path fill="#5a317e" opacity="1.00" d=" M 44.46 214.23 C 47.57 211.38 49.93 206.16 54.81 206.51 C 58.77 206.73 60.39 210.84 62.42 213.61 C 64.68 217.34 69.10 218.86 71.83 222.18 C 74.32 225.21 77.49 227.53 80.97 229.30 C 81.18 229.48 81.61 229.82 81.82 229.99 C 81.21 230.47 80.60 230.97 80.00 231.46 C 80.06 233.63 80.02 235.79 79.84 237.96 C 66.76 232.23 54.76 224.12 44.46 214.23 Z" />
</g>
<g id="#60397bff">
<path fill="#60397b" opacity="1.00" d=" M 80.49 227.82 C 84.67 227.01 86.86 222.80 90.34 220.70 C 97.96 223.90 105.92 226.48 114.21 227.11 C 120.08 227.74 125.99 227.85 131.89 227.81 C 137.64 233.22 143.78 238.96 146.46 246.59 C 124.03 249.99 100.63 247.13 79.84 237.96 C 80.02 235.79 80.06 233.63 80.00 231.46 C 80.60 230.97 81.21 230.47 81.82 229.99 C 81.61 229.82 81.18 229.48 80.97 229.30 C 80.85 228.93 80.61 228.19 80.49 227.82 Z" />
</g>
</svg>
